<svg width="15" height="12" viewBox="0 0 15 12" fill="none" xmlns="http://www.w3.org/2000/svg">
<path fill-rule="evenodd" clip-rule="evenodd" d="M4.53604 1.16445C3.984 0.612115 3.08865 0.611808 2.5362 1.16378L2.27216 1.4276C1.76995 1.28487 1.20808 1.4126 0.812636 1.8107C0.229121 2.39819 0.229121 3.35164 0.812636 3.93912L1.125 4.2536V8.25012H0V9.00013H0.768941C0.525836 9.23837 0.375 9.5704 0.375 9.93764C0.375 10.6625 0.962625 11.2502 1.6875 11.2502C2.41237 11.2502 3 10.6625 3 9.93764C3 9.5704 2.84917 9.23837 2.60606 9.00013H12.3939C12.1508 9.23837 12 9.5704 12 9.93764C12 10.6625 12.5876 11.2502 13.3125 11.2502C14.0374 11.2502 14.625 10.6625 14.625 9.93764C14.625 9.5704 14.4742 9.23837 14.2311 9.00013H15V8.25012H13.5V7.08284C14.1457 6.92432 14.625 6.33732 14.625 5.63745C14.625 4.81593 13.9646 4.14995 13.1498 4.14995H5.29125C5.26069 4.14995 5.23133 4.13769 5.20969 4.1159L5.07229 3.9776L5.21044 3.83956C5.76293 3.28755 5.76322 2.39226 5.21111 1.83988L4.53604 1.16445ZM4.54376 3.44547L4.68034 3.309C4.93976 3.0498 4.93991 2.62945 4.68068 2.3701L4.0056 1.69467C3.74632 1.43525 3.32576 1.4351 3.0663 1.69434L2.93486 1.82566L4.54376 3.44547ZM12.75 8.25012H1.875V5.00868L3.8532 7.0003C3.93251 7.08014 4.03999 7.12499 4.15207 7.12499H12.75V8.25012Z" fill="currentColor"/>
</svg>
