<svg width="16" height="16" viewBox="0 0 16 16" fill="none" xmlns="http://www.w3.org/2000/svg">
<path d="M8.00208 3.19997C7.70753 3.19997 7.46875 2.96119 7.46875 2.66663C7.46875 2.37208 7.70753 2.1333 8.00208 2.1333C8.29664 2.1333 8.53542 2.37208 8.53542 2.66663C8.53542 2.96119 8.29664 3.19997 8.00208 3.19997Z" stroke="currentColor" stroke-width="1.06667"/>
<path d="M8.00208 8.5333C7.70753 8.5333 7.46875 8.29452 7.46875 7.99997C7.46875 7.70542 7.70753 7.46663 8.00208 7.46663C8.29664 7.46663 8.53542 7.70542 8.53542 7.99997C8.53542 8.29452 8.29664 8.5333 8.00208 8.5333Z" stroke="currentColor" stroke-width="1.06667"/>
<path d="M8.00208 13.8666C7.70753 13.8666 7.46875 13.6279 7.46875 13.3333C7.46875 13.0387 7.70753 12.8 8.00208 12.8C8.29664 12.8 8.53542 13.0387 8.53542 13.3333C8.53542 13.6279 8.29664 13.8666 8.00208 13.8666Z" stroke="currentColor" stroke-width="1.06667"/>
</svg>
