<svg width="17" height="13" viewBox="0 0 17 13" fill="none" xmlns="http://www.w3.org/2000/svg">
<path d="M6.87699 6.46676C6.87699 5.58311 7.58967 4.86676 8.46881 4.86676C9.34795 4.86676 10.0606 5.58311 10.0606 6.46676C10.0606 7.35042 9.34795 8.06676 8.46881 8.06676C7.58967 8.06676 6.87699 7.35042 6.87699 6.46676Z" fill="currentColor"/>
<path fill-rule="evenodd" clip-rule="evenodd" d="M15.8973 6.46674C16.3899 6.26869 16.3898 6.26846 16.3897 6.26821L16.3889 6.26604L16.387 6.26145L16.3809 6.24656C16.3758 6.23414 16.3685 6.21678 16.359 6.19481C16.3401 6.15088 16.3124 6.08845 16.2757 6.01017C16.2023 5.85371 16.0926 5.63339 15.9444 5.37049C15.6485 4.84574 15.1959 4.14543 14.5672 3.44332C13.3091 2.03825 11.3191 0.600098 8.46873 0.600098C5.61832 0.600098 3.6284 2.03825 2.3703 3.44332C1.74163 4.14544 1.28896 4.84575 0.993126 5.37049C0.844909 5.6334 0.73523 5.85371 0.661844 6.01018C0.625131 6.08845 0.597441 6.15088 0.5785 6.19481C0.569028 6.21678 0.561738 6.23414 0.556596 6.24656L0.550489 6.26145L0.548634 6.26604L0.548005 6.26761C0.547905 6.26786 0.547574 6.26869 1.04023 6.46676L0.547574 6.26869L0.46875 6.46676L0.547574 6.66484L1.04023 6.46676C0.547574 6.66484 0.547475 6.66459 0.547574 6.66484L0.548005 6.66592L0.548634 6.66749L0.550489 6.67208L0.556596 6.68697C0.561738 6.69938 0.569028 6.71674 0.5785 6.73872C0.597441 6.78265 0.625131 6.84508 0.661844 6.92335C0.73523 7.07982 0.844909 7.30013 0.993126 7.56304C1.28896 8.08778 1.74163 8.78809 2.3703 9.49021C3.6284 10.8953 5.61832 12.3334 8.46873 12.3334C11.3191 12.3334 13.3091 10.8953 14.5672 9.49021C15.1959 8.7881 15.6485 8.08779 15.9444 7.56304C16.0926 7.30014 16.2023 7.07982 16.2757 6.92336C16.3124 6.84508 16.3401 6.78265 16.359 6.73872C16.3685 6.71675 16.3758 6.69939 16.3809 6.68697L16.387 6.67208L16.3889 6.66749L16.3895 6.66592C16.3896 6.66567 16.3899 6.6648 15.8973 6.46674L16.3899 6.66484L16.4687 6.46676L16.3897 6.26821L15.8973 6.46674ZM8.46881 3.8001C7.00358 3.8001 5.81577 4.99401 5.81577 6.46676C5.81577 7.93952 7.00358 9.13343 8.46881 9.13343C9.93405 9.13343 11.1219 7.93952 11.1219 6.46676C11.1219 4.99401 9.93405 3.8001 8.46881 3.8001Z" fill="currentColor"/>
</svg>
