<svg width="46" height="46" viewBox="0 0 46 46" fill="none" xmlns="http://www.w3.org/2000/svg">
<path d="M5 0.5C2.51472 0.5 0.5 2.51472 0.5 5V17C0.5 19.4853 2.51472 21.5 5 21.5H17C19.4853 21.5 21.5 19.4853 21.5 17V5C21.5 2.51472 19.4853 0.5 17 0.5H5Z" fill="currentColor"/>
<path d="M29 0.5C26.5147 0.5 24.5 2.51472 24.5 5V17C24.5 19.4853 26.5147 21.5 29 21.5H41C43.4853 21.5 45.5 19.4853 45.5 17V5C45.5 2.51472 43.4853 0.5 41 0.5H29Z" fill="currentColor"/>
<path d="M5 24.5C2.51472 24.5 0.5 26.5147 0.5 29V41C0.5 43.4853 2.51472 45.5 5 45.5H17C19.4853 45.5 21.5 43.4853 21.5 41V29C21.5 26.5147 19.4853 24.5 17 24.5H5Z" fill="currentColor"/>
<path d="M29 24.5C26.5147 24.5 24.5 26.5147 24.5 29V41C24.5 43.4853 26.5147 45.5 29 45.5H41C43.4853 45.5 45.5 43.4853 45.5 41V29C45.5 26.5147 43.4853 24.5 41 24.5H29Z" fill="currentColor"/>
</svg>
