<svg width="14" height="16" viewBox="0 0 14 16" fill="none" xmlns="http://www.w3.org/2000/svg">
<path fill-rule="evenodd" clip-rule="evenodd" d="M11.8037 1.06667H13.937V0H0.0703125V1.06667H2.20365V4.98301C2.20365 5.69026 2.4846 6.36853 2.98469 6.86863L3.73894 7.62288C3.94722 7.83116 3.94722 8.16884 3.73894 8.37712L2.67227 9.44379C2.37222 9.74385 2.20365 10.1508 2.20365 10.5752V14.9333H0.0703125V16H13.937V14.9333H11.8037V10.5752C11.8037 10.1508 11.6352 9.74385 11.3351 9.44379L10.2685 8.37712C10.0602 8.16884 10.0602 7.83116 10.2684 7.62288L11.3351 6.55621C11.6352 6.25615 11.8037 5.84918 11.8037 5.42484V1.06667ZM3.53646 5.86667H10.5162L10.5809 5.80196C10.6809 5.70194 10.7371 5.56629 10.7371 5.42484V1.06667H3.27031V4.98301C3.27031 5.29964 3.36416 5.60658 3.53646 5.86667Z" fill="currentColor"/>
</svg>
