<svg width="12" height="16" viewBox="0 0 12 16" fill="none" xmlns="http://www.w3.org/2000/svg">
<path d="M3.33282 2.66668C3.33282 1.19391 4.52674 0 5.9995 0C7.47227 0 8.66618 1.19391 8.66618 2.66668V6.93336C8.66618 8.40612 7.47227 9.60004 5.9995 9.60004C4.52674 9.60004 3.33282 8.40612 3.33282 6.93336V2.66668Z" fill="currentColor"/>
<path d="M0.132812 4.26668V6.93336C0.132812 9.99366 2.47602 12.5067 5.46617 12.7761V14.9334H3.33282V16.0001H8.66618V14.9334H6.53284V12.7761C9.52298 12.5067 11.8662 9.99366 11.8662 6.93336V4.26668H10.7995V6.93336C10.7995 9.58434 8.65048 11.7334 5.9995 11.7334C3.34852 11.7334 1.19948 9.58434 1.19948 6.93336V4.26668H0.132812Z" fill="currentColor"/>
</svg>
