<svg width="16" height="16" viewBox="0 0 16 16" fill="none" xmlns="http://www.w3.org/2000/svg">
<path fill-rule="evenodd" clip-rule="evenodd" d="M12.668 2.5H14.168C14.9964 2.5 15.668 3.17157 15.668 4V14C15.668 14.8284 14.9964 15.5 14.168 15.5H2.16797C1.33954 15.5 0.667969 14.8284 0.667969 14V4C0.667969 3.17157 1.33954 2.5 2.16797 2.5H3.66797V0.5H4.66797V2.5H11.668V0.5H12.668V2.5ZM6.66797 8.5H3.66797V7.5H6.66797V8.5ZM12.668 7.5H9.66797V8.5H12.668V7.5ZM6.66797 11.5H3.66797V10.5H6.66797V11.5ZM9.66797 11.5H12.668V10.5H9.66797V11.5Z" fill="currentColor"/>
</svg>
