<svg width="17" height="14" viewBox="0 0 17 14" fill="none" xmlns="http://www.w3.org/2000/svg">
<path d="M2.14429 0.0668945H7.50501V1.13356L2.14429 1.13356V0.0668945Z" fill="currentColor"/>
<path d="M8.57716 8.0669C8.57716 7.18324 9.29718 6.4669 10.1854 6.4669C11.0736 6.4669 11.7936 7.18324 11.7936 8.0669C11.7936 8.95055 11.0736 9.6669 10.1854 9.6669C9.29718 9.6669 8.57716 8.95055 8.57716 8.0669Z" fill="currentColor"/>
<path fill-rule="evenodd" clip-rule="evenodd" d="M0 12.3336C0 13.2172 0.720024 13.9336 1.60822 13.9336L14.474 13.9336C15.3622 13.9336 16.0822 13.2172 16.0822 12.3336V3.80023C16.0822 2.91657 15.3622 2.20023 14.474 2.20023H1.60822C0.720025 2.20023 0 2.91657 0 3.80023V12.3336ZM10.1854 5.40023C8.70505 5.40023 7.50501 6.59414 7.50501 8.0669C7.50501 9.53965 8.70505 10.7336 10.1854 10.7336C11.6657 10.7336 12.8657 9.53965 12.8657 8.0669C12.8657 6.59414 11.6657 5.40023 10.1854 5.40023Z" fill="currentColor"/>
</svg>
