<svg width="16" height="17" viewBox="0 0 16 17" fill="none" xmlns="http://www.w3.org/2000/svg">
<path d="M0 2.1C0 1.21635 0.716344 0.5 1.6 0.5H10.7582C11.1825 0.5 11.5895 0.668571 11.8895 0.968629L15.5314 4.61046C15.8314 4.91052 16 5.31748 16 5.74183V14.9C16 15.7837 15.2837 16.5 14.4 16.5H11.7333V12.7667C11.7333 11.883 11.017 11.1667 10.1333 11.1667H5.86667C4.98301 11.1667 4.26667 11.883 4.26667 12.7667V16.5H1.6C0.716345 16.5 0 15.7837 0 14.9V2.1Z" fill="currentColor"/>
<path d="M5.33333 16.5H10.6667V12.7667C10.6667 12.4721 10.4279 12.2333 10.1333 12.2333H5.86667C5.57212 12.2333 5.33333 12.4721 5.33333 12.7667V16.5Z" fill="currentColor"/>
</svg>
