<svg width="16" height="16" viewBox="0 0 16 16" fill="none" xmlns="http://www.w3.org/2000/svg">
<path d="M5.33333 2.66667C5.33333 1.19391 6.52724 0 8 0C9.47276 0 10.6667 1.19391 10.6667 2.66667C10.6667 4.13943 9.47276 5.33333 8 5.33333C6.52724 5.33333 5.33333 4.13943 5.33333 2.66667Z" fill="currentColor"/>
<path d="M8 6.4C5.93814 6.4 4.26667 8.07147 4.26667 10.1333V12.2667C4.26667 12.5612 4.50545 12.8 4.8 12.8H11.2C11.4946 12.8 11.7333 12.5612 11.7333 12.2667V10.1333C11.7333 8.07147 10.0619 6.4 8 6.4Z" fill="currentColor"/>
<path d="M1.48745 11.4081C1.18485 11.7193 1.06667 12.0085 1.06667 12.2666C1.06667 12.5281 1.18805 12.8218 1.4997 13.1375C1.81361 13.4556 2.29428 13.7665 2.93036 14.0391C4.20062 14.5835 5.99264 14.9333 8 14.9333C10.0074 14.9333 11.7994 14.5835 13.0696 14.0391C13.7057 13.7665 14.1864 13.4556 14.5003 13.1375C14.8119 12.8218 14.9333 12.5281 14.9333 12.2666C14.9333 12.0085 14.8152 11.7193 14.5126 11.4081C14.2075 11.0945 13.7399 10.787 13.1196 10.5157L13.547 9.53841C14.2464 9.84428 14.8455 10.2205 15.2772 10.6644C15.7113 11.1108 16 11.6528 16 12.2666C16 12.8888 15.7035 13.4369 15.2595 13.8868C14.8177 14.3344 14.2049 14.7131 13.4898 15.0195C12.0577 15.6333 10.1164 15.9999 8 15.9999C5.88364 15.9999 3.94233 15.6333 2.51018 15.0195C1.79505 14.7131 1.18226 14.3344 0.740502 13.8868C0.296481 13.4369 0 12.8888 0 12.2666C0 11.6528 0.288651 11.1108 0.722802 10.6644C1.15454 10.2205 1.7536 9.84428 2.45296 9.53841L2.88038 10.5157C2.26006 10.787 1.79246 11.0945 1.48745 11.4081Z" fill="currentColor"/>
</svg>
